<?xml version="1.0" encoding="utf-8"?>
<!-- Generator: Adobe Illustrator 24.0.0, SVG Export Plug-In . SVG Version: 6.00 Build 0)  -->
<svg version="1.1" id="Capa_1" xmlns="http://www.w3.org/2000/svg" xmlns:xlink="http://www.w3.org/1999/xlink" x="0px" y="0px"
	 viewBox="0 0 50 50" style="enable-background:new 0 0 50 50;" xml:space="preserve">
<style type="text/css">
	.st0{fill:#FFFFFF;}
</style>
<path class="st0" d="M25,0c-0.8,0-1.5,0.2-2.3,0.5L4.5,10.9c-1.4,0.8-2.3,2.3-2.3,3.8v20.5c0,1.6,0.9,3,2.3,3.8l18.3,10.3
	c0.7,0.4,1.5,0.5,2.3,0.5s1.5-0.2,2.3-0.5l18.3-10.2c1.4-0.8,2.3-2.3,2.3-3.8V14.7c0-1.6-0.9-3-2.3-3.8L27.3,0.5
	C26.5,0.2,25.8,0,25,0z M25,12c4.1,0,7.9,2,10.3,5.1l-4.8,2.7c-1.4-1.5-3.4-2.4-5.5-2.4c-4.2,0-7.6,3.4-7.6,7.6s3.4,7.6,7.6,7.6
	c2.2,0,4.1-0.9,5.7-2.5l4.8,2.7c-2.5,3.3-6.3,5.1-10.3,5.1c-7.2,0-13-5.9-13-13S17.8,12,25,12z M35.9,19.6H38v2.2h2.2v-2.2h2.2v2.2
	h2.2v2.2h-2.2v2.2h2.2v2.2h-2.2v2.2h-2.2v-2.2H38v2.2h-2.2v-2.2h-2.2v-2.2h2.2v-2.2h-2.2v-2.2h2.2V19.6z M38,23.9v2.2h2.2v-2.2H38z"
	/>
</svg>
