<?xml version="1.0" encoding="utf-8"?>
<!-- Generator: Adobe Illustrator 24.0.0, SVG Export Plug-In . SVG Version: 6.00 Build 0)  -->
<svg version="1.1" id="Capa_1" xmlns="http://www.w3.org/2000/svg" xmlns:xlink="http://www.w3.org/1999/xlink" x="0px" y="0px"
	 viewBox="0 0 30 30" style="enable-background:new 0 0 30 30;" xml:space="preserve">
<style type="text/css">
	.st0{fill:#FFFFFF;}
</style>
<g id="surface9079263">
	<path class="st0" d="M28,0.4C27.8,0.2,27.5,0,27.1,0H2.9C2.5,0,2.2,0.2,2,0.4C1.7,0.7,1.6,1,1.7,1.4l2.7,24.8
		c0.1,0.5,0.4,0.9,0.9,1.1l9.4,2.7c0.1,0,0.2,0,0.3,0c0.1,0,0.2,0,0.3,0l9.4-2.7c0.5-0.1,0.8-0.6,0.9-1.1l2.8-24.8
		C28.4,1,28.3,0.7,28,0.4z M21.9,12.6l-0.6,9.1L15,23.8l-6.3-2.1l-0.2-4.4h3.2l0.1,2l3.3,1.1l3.3-1.1l0.2-3.6h-7l-0.2-3.2h7.3
		l0.2-3.2h-11L7.7,6.3h14.6L21.9,12.6z"/>
</g>
</svg>
