<?xml version="1.0" encoding="utf-8"?>
<!-- Generator: Adobe Illustrator 24.0.0, SVG Export Plug-In . SVG Version: 6.00 Build 0)  -->
<svg version="1.1" id="Capa_1" xmlns="http://www.w3.org/2000/svg" xmlns:xlink="http://www.w3.org/1999/xlink" x="0px" y="0px"
	 viewBox="0 0 48 48" style="enable-background:new 0 0 48 48;" xml:space="preserve">
<path d="M21.3,0.2C10.2,1.4,1.3,10.3,0.1,21.1c-1.2,11.3,5.3,21.4,15.2,25.3c0.7,0.2,1.4-0.2,1.4-1.2v-3.8c0,0-1,0.2-2.2,0.2
	c-3.4,0-4.8-2.9-5.1-4.6c-0.2-1-0.7-1.7-1.4-2.4c-0.7-0.2-1-0.2-1-0.5c0-0.5,0.7-0.5,1-0.5c1.4,0,2.6,1.7,3.1,2.4
	c1.2,1.9,2.6,2.4,3.4,2.4c1,0,1.7-0.2,2.2-0.5c0.2-1.7,1-3.4,2.4-4.3c-5.5-1.2-9.6-4.3-9.6-9.6c0-2.6,1.2-5.3,2.9-7.2
	c-0.2-0.5-0.5-1.7-0.5-3.4c0-1,0-2.4,0.7-3.8c0,0,3.4,0,6.7,3.1c1.2-0.5,2.9-0.7,4.6-0.7c1.7,0,3.4,0.2,4.8,0.7
	c3.1-3.1,6.7-3.1,6.7-3.1C36,11,36,12.4,36,13.4c0,1.9-0.2,2.9-0.5,3.4c1.7,1.9,2.9,4.3,2.9,7.2c0,5.3-4.1,8.4-9.6,9.6
	c1.4,1.2,2.4,3.4,2.4,5.5v6.3c0,0.7,0.7,1.4,1.7,1.2C41.7,43,48,34.3,48,24.2C48,9.8,35.7-1.5,21.3,0.2z"/>
</svg>
