<?xml version="1.0" encoding="utf-8"?>
<!-- Generator: Adobe Illustrator 24.0.0, SVG Export Plug-In . SVG Version: 6.00 Build 0)  -->
<svg version="1.1" id="Capa_1" xmlns="http://www.w3.org/2000/svg" xmlns:xlink="http://www.w3.org/1999/xlink" x="0px" y="0px"
	 viewBox="0 0 30 30" style="enable-background:new 0 0 30 30;" xml:space="preserve">
<style type="text/css">
	.st0{fill:#FFFFFF;}
</style>
<g id="surface9078469">
	<path class="st0" d="M28.1,0.4C27.8,0.2,27.5,0,27.1,0H2.9C2.5,0,2.2,0.2,1.9,0.4C1.7,0.7,1.6,1,1.6,1.4l2.8,24.8
		c0.1,0.5,0.4,0.9,0.9,1.1l9.4,2.7c0.1,0,0.2,0,0.3,0c0.1,0,0.2,0,0.3,0l9.4-2.7c0.5-0.1,0.8-0.6,0.9-1.1l2.8-24.8
		C28.4,1,28.3,0.7,28.1,0.4z M22,9.3H10.9l0.3,3.2h10.6L21,21.9l-6,1.9l-0.1,0L9,21.9l-0.3-3.8h2.9l0.1,1.5l3.3,0.7l3.2-0.7l0.3-4
		H8.5L7.7,6.3h14.6L22,9.3z"/>
</g>
</svg>
