<?xml version="1.0" encoding="utf-8"?>
<!-- Generator: Adobe Illustrator 24.0.0, SVG Export Plug-In . SVG Version: 6.00 Build 0)  -->
<svg version="1.1" id="Capa_1" xmlns="http://www.w3.org/2000/svg" xmlns:xlink="http://www.w3.org/1999/xlink" x="0px" y="0px"
	 viewBox="0 0 50 50" style="enable-background:new 0 0 50 50;" xml:space="preserve">
<style type="text/css">
	.st0{fill:#FFFFFF;}
</style>
<path class="st0" d="M46.7,0.1H3.3c-1.8,0-3.2,1.4-3.2,3.2v43.5c0,1.7,1.4,3.1,3.2,3.1h43.5c1.8,0,3.2-1.4,3.2-3.2V3.3
	C49.9,1.5,48.5,0.1,46.7,0.1z M27.4,38.3c0,4.7-2.7,6.9-6.9,6.9c-3.7,0-6.3-2.5-7.3-4.7l3.7-2.3c0.7,1.3,1.8,2.3,3.4,2.3
	c1.5,0,2.4-0.6,2.4-2.8V22.6h4.7V38.3z M37.7,45.1c-4.1,0-6.6-2.1-7.9-4.7l3.6-2.4c0.9,1.5,2,3.1,4.3,3.1c1.9,0,2.8-0.9,2.8-2.3
	c0-1.5-1.1-2.1-3.1-3l-1.2-0.5c-3.3-1.4-5.5-3.1-5.5-6.9c0-3.4,2.6-5.9,6.6-5.9c2.8,0,5,0.9,6.4,3.7l-3.6,2.3
	c-0.8-1.4-1.7-1.9-3-1.9s-2.1,0.8-2.1,1.9c0,1.3,0.8,1.9,2.7,2.7l1.2,0.5c3.8,1.7,6,3.3,6,7.1C45.1,42.9,41.9,45.1,37.7,45.1z"/>
</svg>
