<?xml version="1.0" encoding="utf-8"?>
<!-- Generator: Adobe Illustrator 24.0.0, SVG Export Plug-In . SVG Version: 6.00 Build 0)  -->
<svg version="1.1" id="Capa_1" xmlns="http://www.w3.org/2000/svg" xmlns:xlink="http://www.w3.org/1999/xlink" x="0px" y="0px"
	 viewBox="0 0 48 48" style="enable-background:new 0 0 48 48;" xml:space="preserve">
<path d="M41.3,0H6.7C3,0,0,3,0,6.7v34.7C0,45,3,48,6.7,48h34.7c3.7,0,6.7-3,6.7-6.7V6.7C48,3,45,0,41.3,0z M14.7,40H8V17.3h6.7V40z
	 M11.3,14.7L11.3,14.7c-2,0-3.3-1.5-3.3-3.3C8,9.4,9.3,8,11.4,8c2,0,3.3,1.4,3.3,3.3C14.7,13.2,13.4,14.7,11.3,14.7z M33.3,40V27.9
	c0-2.9-1.6-4.9-4.3-4.9c-2,0-3.1,1.3-3.6,2.7c-0.2,0.5-0.1,1.8-0.1,2.4v12h-6.7V17.3h6.7v3.5c1-1.5,2.5-3.5,6.3-3.5
	c4.8,0,8.3,3,8.3,9.7l0,13H33.3z"/>
</svg>
