<svg id="Capa_1" data-name="Capa 1" xmlns="http://www.w3.org/2000/svg" viewBox="0 0 985.23 984.59"><defs><style>.cls-1{fill:#fff;}.cls-2{fill:#ed731a;}</style></defs><title>IconSantimartz</title><path class="cls-1" d="M832.3,991.59c0-11-.07-21.94,0-32.91a29.8,29.8,0,0,1,1-7.64q33-120.21,66.15-240.4,14.29-51.95,28.57-103.91c.36-1.31.63-2.64,1-4.33-4.91-.89-9.71-.33-14.47-.42-5-.1-10.06,0-15.09,0H840.31V541.69H991.2c.09,1.48.07,2.8.07,4.13,0,10.36.07,20.72,0,31.09a26.9,26.9,0,0,1-1,6.72Q954,714.79,917.66,845.94q-11,39.82-22.06,79.65c-.36,1.31-.63,2.64-.89,3.76.12.37.13.55.22.64a1.11,1.11,0,0,0,.42.16,1.77,1.77,0,0,0,.44.11c.46,0,.92.06,1.37.06l93.26.12a3,3,0,0,1,.67.24,5.29,5.29,0,0,1,.42,1.48q0,29.72-.11,59.43Z" transform="translate(-8 -7)"/><path class="cls-2" d="M690.57,991.59c-.14-2.27-.42-4.54-.42-6.81q0-188.34,0-376.66v-7.27H633.3V542.14c3.33-.88,159.85-1.14,165.52-.23v58.82h-57V991.59Z" transform="translate(-8 -7)"/><path class="cls-2" d="M447.36,991.59V541.67c2-.1,3.44-.25,4.92-.25q66,0,132.09,0a43.82,43.82,0,0,1,8.18.62c9,1.7,15.43,6.86,19.26,15.21,3.37,7.35,4.48,15.21,4.5,23.15q.13,84.11,0,168.21a58.18,58.18,0,0,1-3.24,19.74c-3.63,10.1-10.49,16.25-21.32,17.41-6,.65-12.13,1-18.2,1.42-1.65.13-3.31.18-5.56.3.43,1.84.74,3.4,1.17,4.93q23,81.75,46,163.49,4.39,15.62,8.74,31.22c.4,1.45.59,3,.87,4.45h-54a26.65,26.65,0,0,0-.48-2.67q-27.79-101.5-55.57-203a30.74,30.74,0,0,1-1.07-7.63c-.11-10.51,0-21,0-31.54v-5h50.46c1-7.34.65-139.32-.33-142.38-12.54-.87-60.8-.45-64.43.64V985.21c0,2.13.1,4.25.15,6.38Z" transform="translate(-8 -7)"/><path class="cls-2" d="M238,991.59q5.79-38.61,11.59-77.21,5.7-38.16,11.36-76.33,6.15-41.1,12.37-82.19,5.23-35,10.43-70,5.26-35.24,10.55-70.46,4.78-32.05,9.57-64.13c.51-3.42,1.11-6.83,1.68-10.32h54.3c.5,2.94,1.06,5.87,1.5,8.83q5.87,39.29,11.68,78.59c3.81,25.75,7.54,51.51,11.36,77.26,4.1,27.71,8.29,55.4,12.4,83.11,3.82,25.75,7.56,51.51,11.39,77.26q6.17,41.55,12.41,83.1,2.83,19,5.61,37.95a43,43,0,0,1,.16,4.55H375.12c-.08-1.52-.08-3-.26-4.54q-3.56-29.25-7.16-58.49c-.93-7.52-1.91-15-2.89-22.73H300.16a24.11,24.11,0,0,0-.71,2.81c-2.23,18.28-4.41,36.58-6.66,54.87-1.15,9.36-2.41,18.72-3.62,28.08ZM357.5,847.65q-12.42-99.6-24.75-198.54l-1,0L306.79,847.65Z" transform="translate(-8 -7)"/><path class="cls-1" d="M8.46,991.59C8.31,989.78,8,988,8,986.15Q8,766.72,8,547.27v-5.59H57.07Q71.41,606.29,85.5,671.17c9.3,43.12,19.48,86.05,27.71,128.1,2.43-20.34,8.23-41.33,12.81-62.56C137,686,148.2,635.3,159.32,584.6q4.26-19.41,8.49-38.81c.29-1.32.71-2.6,1.13-4.11h48.91V991.59H168.48c-.19-2-.53-3.91-.53-5.86q0-108.13,0-216.25c0-8.82.72-17.65,1.18-26.47.26-4.93.67-9.86,1-14.78l-.64-.08q-21.6,110.61-43.23,221.27H99.79q-21.56-109.8-43-219.16a23.39,23.39,0,0,0-.4,7.66c.17,2.58.5,5.16.57,7.74.35,13.25.89,26.5.9,39.75q.12,103.08,0,206.18Z" transform="translate(-8 -7)"/><path class="cls-1" d="M993.23,480.44c-4.72.08-9.44.21-14.16.22-12.49,0-25,0-37.48,0h-4.87c-1-3.59-1.22-467.19-.31-472.95a18.25,18.25,0,0,1,2.94-.44q25.36,0,50.73,0a24.31,24.31,0,0,1,3.15.43Z" transform="translate(-8 -7)"/><path class="cls-1" d="M833.59,480.47H777.38c-.45-13.72-.14-27.36-.2-41s0-27.12,0-40.69V70.18c-5.41-.53-10.53-.21-15.63-.26-5.34-.06-10.67,0-16,0h-31c-1-3.4-1.27-57.12-.27-62.35H897.14V69.78c-20.68.3-41.47,0-62,.17a7.22,7.22,0,0,0-.53.54,1.12,1.12,0,0,0-.24.37,1.64,1.64,0,0,0-.09.44,3.62,3.62,0,0,0-.06.46l0,.91v.91q0,202.29,0,404.57c0,.3,0,.61,0,.91a2.22,2.22,0,0,1-.07.45c0,.14-.12.27-.43,1" transform="translate(-8 -7)"/><path class="cls-1" d="M676.1,480.45H626Q581,334.74,535.9,189l-.63.16c.66,6.19,1.39,12.37,2,18.56.31,3.49.52,7,.52,10.5q0,128.7,0,257.4v4.78H482.66c-1-3.24-1.51-460.81-.5-472.37,3.18-.9,43.6-1.16,50.07-.25q44,139.64,88.06,279.7c1.94-4.68.57-9.36.54-14,0-5-.37-10.05-.45-15.07s0-9.76,0-14.63V7.59H676.1Z" transform="translate(-8 -7)"/><path class="cls-1" d="M367.62,7q36.9,236.87,73.74,473.41H384.55c-3.82-29.62-7.64-59.3-11.5-89.28h-72c-3.83,29.76-7.65,59.45-11.49,89.31h-56c-.87-3.65,72.76-467.53,74-473.44ZM337.39,119.83l-.88-.09q-13.9,105.09-27.76,210.45H364.9q-13.78-105.48-27.51-210.36" transform="translate(-8 -7)"/><path class="cls-1" d="M8.35,325.28H65.13c.45,5.17.13,10.44.19,15.69s0,10.67,0,16v63.78h70a32.49,32.49,0,0,0,.34-3.38c0-28.49,0-57,.08-85.48a9.26,9.26,0,0,0-2.7-6.44Q77.38,260.55,21.82,195.59c-6.73-7.84-11.16-16.69-12.62-26.91a102.41,102.41,0,0,1-1.13-14.09q-.15-51.2,0-102.4a80,80,0,0,1,2.29-20.83c4-14.95,13.59-22.86,29-23.91,1.82-.13,3.65-.19,5.48-.19q55.54,0,111.08,0a64.26,64.26,0,0,1,13.13,1.3c8.54,1.82,14.76,6.93,18.71,14.74C192,31.74,193,40.79,193,50q.09,50.51,0,101v4.37c-3.7,1-51.41,1.25-57.43.3V67.18H65.55c-.08,1.72-.21,3.2-.21,4.68,0,25.45,0,50.9,0,76.34A10.35,10.35,0,0,0,68,155.59C104.66,198.18,141.15,241,178,283.39c9.93,11.43,14.89,24.38,15,39.18.2,39.16.12,78.32,0,117.48a59.24,59.24,0,0,1-3.37,20.19c-4.54,12.5-13.54,19.09-26.66,20.24-2.12.19-4.27.18-6.4.19q-56.22,0-112.45,0a59.78,59.78,0,0,1-11.33-1c-9.89-1.93-16.54-8-20.49-17.11-3.46-8-4.24-16.5-4.25-25.06Q7.92,383,8,328.64c0-1,.19-2.08.32-3.36" transform="translate(-8 -7)"/></svg>