<?xml version="1.0" encoding="utf-8"?>
<!-- Generator: Adobe Illustrator 24.0.0, SVG Export Plug-In . SVG Version: 6.00 Build 0)  -->
<svg version="1.1" id="Capa_1" xmlns="http://www.w3.org/2000/svg" xmlns:xlink="http://www.w3.org/1999/xlink" x="0px" y="0px"
	 viewBox="0 0 20 20" style="enable-background:new 0 0 20 20;" xml:space="preserve">
<style type="text/css">
	.st0{fill:#FFFFFF;}
</style>
<g>
	<path class="st0" d="M10,20c-1.5,0-3-0.3-4.3-1l-3.9,0.8c-0.2,0-0.4,0-0.5-0.2C1.1,19.5,1,19.3,1,19.1l0.5-3.8
		C0.5,13.7,0,11.9,0,10c0-5.5,4.5-10,10-10s10,4.5,10,10c0,2-0.6,3.9-1.6,5.5C16.5,18.3,13.3,20,10,20z M5.7,17.8
		c0.1,0,0.2,0,0.3,0.1c1.3,0.6,2.6,1,4,1c3,0,5.7-1.5,7.3-4c0.9-1.4,1.4-3.1,1.4-4.8c0-4.8-3.9-8.8-8.8-8.8c-4.8,0-8.8,3.9-8.8,8.8
		c0,1.7,0.5,3.4,1.5,4.8c0.1,0.2,0.1,0.4,0.1,0.5l-0.4,3.1l3.2-0.6C5.6,17.8,5.6,17.8,5.7,17.8z"/>
	<path class="st0" d="M14.8,7.8H5.7c-0.2,0-0.4-0.2-0.4-0.4s0.2-0.4,0.4-0.4h9.1c0.2,0,0.4,0.2,0.4,0.4S15.1,7.8,14.8,7.8z"/>
	<path class="st0" d="M13.2,10.5H7.4c-0.2,0-0.4-0.2-0.4-0.4c0-0.2,0.2-0.4,0.4-0.4h5.8c0.2,0,0.4,0.2,0.4,0.4
		C13.6,10.3,13.4,10.5,13.2,10.5z"/>
	<path class="st0" d="M14.8,13.3H5.7c-0.2,0-0.4-0.2-0.4-0.4c0-0.2,0.2-0.4,0.4-0.4h9.1c0.2,0,0.4,0.2,0.4,0.4
		C15.3,13.1,15.1,13.3,14.8,13.3z"/>
</g>
</svg>
